<?xml version="1.0" standalone="no"?>
<!DOCTYPE svg PUBLIC "-//W3C//DTD SVG 20010904//EN"
 "http://www.w3.org/TR/2001/REC-SVG-20010904/DTD/svg10.dtd">
<svg version="1.0" xmlns="http://www.w3.org/2000/svg"
 width="1920.000000pt" height="1080.000000pt" viewBox="0 0 1920.000000 1080.000000"
 preserveAspectRatio="xMidYMid meet">
<metadata>
Created by potrace 1.16, written by Peter Selinger 2001-2019
</metadata>
<g transform="translate(0.000000,1080.000000) scale(0.100000,-0.100000)"
fill="#000000" stroke="none">
<path d="M0 9015 c0 -1752 0 -1785 19 -1804 12 -12 21 -15 23 -9 2 6 14 1 26
-12 25 -27 29 -45 7 -36 -9 3 -15 0 -15 -10 0 -15 -2 -15 -24 -1 -23 15 -24
15 -19 -3 3 -11 1 -20 -4 -20 -6 0 -10 -61 -11 -145 0 -125 2 -146 16 -156 16
-10 15 -10 0 -5 -17 5 -18 -12 -18 -254 0 -167 4 -260 10 -260 6 0 10 -7 10
-15 0 -8 -4 -15 -10 -15 -7 0 -10 -1052 -10 -3135 l0 -3135 2834 0 c2510 0
2835 2 2840 15 7 19 42 19 50 0 5 -13 132 -15 1061 -15 l1055 0 0 29 c0 16 -9
39 -21 52 l-20 24 5 -33 c6 -32 5 -33 -16 -17 -13 9 -45 15 -78 16 -70 1 -93
9 -80 29 14 23 12 30 -10 30 -10 0 -24 -9 -30 -21 -7 -11 -18 -18 -25 -15 -8
3 -17 1 -20 -4 -4 -6 -18 -9 -33 -9 -17 1 -21 3 -9 6 18 5 23 19 9 25 -4 1 -5
17 -1 33 l7 30 1 -27 c1 -38 21 -36 21 2 0 23 5 31 24 36 14 3 30 3 36 -1 14
-9 80 33 80 51 0 9 -4 13 -9 9 -6 -3 -117 -6 -248 -7 l-238 -2 -90 38 c-84 36
-98 39 -205 42 -102 3 -117 6 -129 24 -8 12 -25 20 -42 20 -16 0 -29 5 -29 10
0 6 5 10 10 10 6 0 10 8 10 19 0 10 7 24 15 31 10 9 15 9 15 1 0 -6 -4 -11
-10 -11 -5 0 -10 -5 -10 -12 0 -9 3 -9 12 0 7 7 22 12 35 12 13 0 23 4 23 9 0
6 -8 10 -17 10 -10 0 -53 3 -95 6 -67 5 -78 4 -78 -10 0 -9 -7 -18 -15 -21 -8
-4 -12 -10 -9 -15 3 -5 -4 -9 -15 -9 -11 0 -22 -4 -25 -9 -4 -5 -24 -4 -48 4
-58 17 -64 48 -14 71 19 10 32 22 29 27 -4 6 0 8 10 4 24 -9 21 6 -6 31 -16
15 -36 22 -65 22 -40 0 -42 2 -42 30 0 25 5 30 37 39 20 6 39 8 42 6 2 -3 11
1 19 7 8 7 42 13 76 13 41 1 70 7 86 18 28 19 55 5 47 -24 -3 -10 -2 -18 2
-17 3 1 41 -15 85 -36 47 -23 81 -35 85 -28 3 5 42 14 86 20 44 6 96 14 115
19 30 8 37 6 53 -13 13 -17 25 -22 50 -18 17 2 33 8 35 14 3 7 22 8 54 4 48
-7 50 -6 43 15 -4 15 -2 21 8 21 9 0 17 5 19 12 3 8 12 9 36 0 30 -10 33 -9
59 24 24 32 30 35 63 29 28 -5 42 -1 65 17 l29 23 -29 5 c-23 4 -34 15 -48 44
-23 49 -16 70 21 62 19 -5 46 2 90 24 73 35 102 38 128 9 10 -11 26 -18 36
-16 12 4 18 0 18 -11 0 -11 3 -13 8 -6 4 7 15 13 26 15 10 2 23 14 27 27 7 19
6 23 -9 21 -9 -2 -28 3 -40 10 -13 7 -26 10 -29 7 -3 -3 -11 1 -18 10 -8 12
-8 25 -1 50 9 27 16 34 36 34 15 0 31 5 37 11 7 7 15 6 26 -5 12 -13 14 -23 6
-48 -13 -46 -11 -56 8 -60 10 -2 18 -10 19 -18 1 -8 5 -25 9 -37 9 -28 39 -32
30 -4 -3 12 0 21 10 25 8 3 14 9 13 13 -1 4 2 18 6 31 5 15 3 29 -6 39 -10 13
-10 17 0 21 8 2 3 15 -18 38 -28 32 -40 74 -22 74 18 1 32 18 26 33 -4 13 -18
17 -53 17 -26 0 -52 5 -59 12 -8 8 -14 5 -21 -15 -17 -44 -81 -32 -81 15 0 10
5 18 10 18 6 0 10 14 10 31 0 24 4 30 16 25 12 -5 15 1 12 32 -2 20 -8 36 -14
35 -20 -4 -49 75 -38 104 5 15 14 28 19 30 10 3 45 -65 45 -87 0 -10 62 -2 70
10 3 4 15 12 28 19 17 9 22 9 22 -1 0 -10 2 -10 9 1 7 11 15 11 45 1 46 -15
103 -5 119 20 8 14 23 20 49 20 21 0 38 3 39 8 4 38 14 60 37 82 15 14 48 49
74 78 32 37 51 50 63 46 9 -4 14 -13 11 -20 -3 -8 -1 -14 5 -14 6 0 8 -4 5 -9
-6 -10 20 -35 47 -44 9 -4 17 -3 17 1 0 4 32 14 70 21 56 10 74 10 86 0 11 -9
18 -9 32 4 12 11 22 13 34 6 13 -7 18 -3 26 19 5 15 21 39 35 52 15 14 27 35
27 48 0 26 1 26 46 7 20 -8 40 -12 45 -9 5 3 9 -2 9 -10 0 -24 28 -33 78 -25
51 7 72 -2 72 -32 0 -10 5 -21 10 -24 6 -3 10 -24 10 -46 0 -46 10 -49 75 -17
36 17 48 20 54 10 10 -16 92 -23 110 -9 10 9 13 7 10 -8 -3 -12 -14 -21 -27
-23 -16 -2 -22 -9 -20 -20 5 -21 64 -19 89 4 12 11 27 13 52 9 29 -6 35 -4 40
14 7 29 29 26 60 -9 32 -36 34 -59 7 -90 -12 -13 -18 -30 -15 -38 3 -7 5 -18
5 -23 0 -5 15 -9 33 -9 28 0 37 -6 55 -38 12 -21 39 -61 62 -89 34 -44 46 -52
85 -57 39 -6 58 -2 137 32 56 24 95 36 97 30 2 -6 9 -1 16 12 8 15 15 19 19
11 4 -6 2 -11 -4 -11 -7 0 -8 -6 -1 -18 7 -13 7 -22 -1 -30 -8 -8 -7 -13 5
-18 9 -3 17 -10 17 -16 0 -5 -5 -6 -11 -2 -7 4 -10 1 -7 -7 3 -8 -6 -27 -18
-42 -16 -19 -24 -41 -24 -68 0 -21 -3 -39 -7 -39 -5 0 -16 -19 -25 -43 -18
-47 -22 -107 -20 -305 l2 -134 43 -43 c85 -86 117 -123 117 -133 0 -6 12 -15
28 -20 15 -6 21 -11 15 -11 -16 -1 -17 -35 -2 -64 9 -16 9 -22 0 -25 -16 -5
-14 -22 3 -22 7 0 19 -7 26 -15 7 -9 15 -13 18 -11 2 3 17 -1 33 -9 15 -8 42
-15 59 -15 20 0 30 -5 30 -15 0 -8 5 -15 10 -15 6 0 10 7 10 15 0 22 49 38 95
30 22 -3 47 -6 55 -6 8 0 30 -2 48 -5 28 -4 32 -9 32 -34 l0 -30 -77 0 c-43 0
-98 5 -121 10 -35 8 -55 7 -97 -7 -55 -18 -84 -53 -44 -53 10 0 19 -4 19 -10
0 -17 35 -11 49 9 13 18 16 18 40 3 23 -16 186 -17 2147 -20 2025 -2 2122 -2
2120 15 -1 12 6 18 19 18 13 0 20 -6 19 -17 -2 -17 117 -18 2317 -18 l2319 0
0 5400 0 5400 -4015 0 c-2670 0 -4015 -3 -4015 -10 0 -5 -7 -10 -15 -10 -8 0
-15 5 -15 10 0 15 -5482 14 -5497 -1 -8 -8 -13 -8 -17 0 -5 8 -804 11 -2817
11 l-2809 0 0 -1785z m5920 1169 c0 -14 4 -34 10 -44 7 -13 6 -19 -5 -24 -25
-9 -17 -22 24 -40 33 -16 38 -22 36 -49 -2 -47 -14 -67 -40 -67 -13 0 -25 -3
-28 -7 -2 -5 -2 -2 -1 5 10 37 -96 -26 -138 -83 -5 -6 -8 -5 -8 3 0 6 -4 12
-10 12 -5 0 -10 -9 -10 -21 0 -13 4 -18 13 -13 9 5 9 4 0 -6 -6 -7 -23 -12
-37 -12 -17 0 -26 -6 -26 -17 0 -9 -10 -29 -23 -45 -20 -24 -32 -29 -90 -35
-45 -5 -74 -3 -89 5 -13 7 -41 16 -63 20 -37 7 -39 6 -26 -10 8 -9 20 -15 27
-12 7 3 22 -6 32 -19 14 -18 22 -21 31 -12 8 8 11 8 11 -1 0 -15 44 -16 71 -2
16 9 19 7 19 -10 0 -15 -7 -20 -24 -20 -13 0 -26 -5 -28 -11 -2 -5 -11 -11
-20 -13 -22 -3 -59 -36 -52 -47 3 -5 -11 -9 -32 -9 -31 0 -36 3 -31 20 3 11 1
20 -4 20 -5 0 -9 -4 -9 -10 0 -5 -7 -10 -16 -10 -20 0 -43 -28 -44 -53 0 -10
-15 -24 -35 -34 -19 -9 -35 -19 -35 -23 0 -3 -10 -7 -22 -7 -13 -1 -28 -9 -34
-17 -6 -9 -14 -13 -17 -10 -3 3 -12 -3 -19 -15 -7 -12 -23 -21 -35 -21 -25 0
-31 -15 -10 -24 6 -3 -9 -3 -35 0 -53 7 -104 -10 -111 -37 -3 -9 -17 -25 -32
-35 -22 -14 -28 -15 -35 -4 -5 8 -6 18 -3 24 3 5 1 6 -4 3 -18 -11 -43 57 -43
115 0 106 13 249 21 236 6 -9 9 -3 9 17 0 23 7 35 29 48 38 22 51 22 51 -3 0
-32 52 -27 82 8 28 32 74 72 65 56 -4 -7 2 -23 13 -35 21 -25 22 -24 49 20 6
10 13 11 30 2 17 -10 21 -9 21 4 0 8 5 15 10 15 6 0 10 7 10 15 0 8 9 19 21
25 12 7 19 19 17 33 -2 16 4 24 27 31 17 6 37 19 46 28 17 19 69 25 69 8 0 -5
5 -10 10 -10 6 0 9 3 9 8 -1 4 -1 14 1 22 1 11 4 9 10 -5 7 -17 9 -17 9 -2 1
21 19 23 27 2 7 -17 46 -20 73 -6 10 6 30 28 46 50 15 23 32 41 37 41 5 0 15
-13 21 -30 14 -36 32 -40 23 -6 -4 15 -1 27 7 30 6 3 1 3 -13 0 -20 -5 -23 -4
-12 7 6 7 12 20 12 29 0 10 9 27 19 39 19 22 19 22 33 2 13 -19 14 -19 33 9
19 28 36 34 108 38 23 2 27 -2 27 -24z m1424 -273 c11 -12 25 -21 33 -21 7 0
13 -5 13 -12 0 -6 7 -3 16 8 15 19 15 18 11 -3 -6 -25 32 -73 58 -73 24 0 18
-19 -9 -26 -19 -5 -23 -10 -17 -25 4 -11 5 -35 3 -53 -4 -33 -4 -33 -49 -28
-45 5 -46 4 -41 -22 4 -17 1 -26 -8 -26 -22 0 -34 -35 -36 -100 -3 -97 -18
-81 -18 19 l0 91 -32 0 c-42 0 -108 18 -108 30 0 7 -49 28 -82 36 -5 1 -11 3
-15 4 -5 1 -11 2 -15 1 -14 -2 -8 17 7 23 19 7 20 45 1 52 -12 4 -11 10 2 37
12 24 17 28 20 15 4 -21 20 -24 28 -5 6 16 53 20 70 6 10 -9 14 -9 14 0 0 6 8
11 18 11 13 0 14 2 4 9 -11 6 -9 9 6 13 13 4 22 16 24 34 2 21 8 28 20 26 19
-3 24 10 33 88 11 85 20 83 25 -6 4 -62 10 -87 24 -103z m-1044 -108 c0 -7 -5
-13 -11 -13 -5 0 -7 -4 -4 -10 3 -5 2 -10 -4 -10 -5 0 -3 -14 6 -30 8 -17 19
-28 24 -25 5 4 9 1 9 -4 0 -6 -4 -11 -9 -11 -16 0 -41 -58 -28 -63 8 -2 6 -10
-6 -21 -9 -10 -17 -24 -17 -32 0 -8 -10 -14 -22 -15 -13 0 -17 -3 -9 -6 11 -5
11 -7 0 -14 -12 -8 -12 -10 -1 -18 11 -6 8 -10 -10 -14 -16 -4 -24 -14 -26
-31 -1 -22 0 -23 22 -13 14 7 24 16 23 20 -1 5 7 14 18 20 25 15 35 29 29 39
-3 4 0 8 5 8 6 0 11 -4 11 -9 0 -5 10 -13 23 -16 51 -15 77 -28 77 -41 0 -23
26 -16 38 11 9 20 8 26 -6 34 -9 6 -12 11 -6 11 29 1 50 -78 22 -82 -7 0 -17
-2 -23 -3 -5 -2 -23 -3 -40 -4 -70 -4 -98 -74 -61 -155 21 -45 22 -46 59 -40
34 5 37 4 37 -17 0 -12 -14 -35 -32 -51 -37 -33 -33 -31 -59 -15 -17 10 -22 9
-33 -5 -8 -11 -26 -18 -44 -18 -27 0 -39 -10 -89 -77 -71 -94 -87 -123 -69
-123 7 0 21 8 32 18 12 12 32 18 52 16 17 -1 32 1 32 6 0 4 11 19 25 34 14 15
25 33 25 40 0 23 32 41 72 41 l38 0 -6 -47 c-6 -47 7 -67 20 -32 3 8 11 12 17
9 14 -9 4 -78 -11 -83 -9 -3 -9 -7 1 -13 9 -5 23 3 42 22 23 24 26 33 16 45
-6 8 -8 14 -3 14 5 0 10 20 10 45 1 26 -3 45 -9 45 -7 0 -6 5 1 12 8 8 15 9
20 3 4 -6 12 -11 19 -12 14 -3 6 25 -14 45 -17 17 -16 29 1 35 10 4 12 -1 9
-16 -3 -14 -2 -18 4 -10 7 10 15 9 35 -1 15 -8 29 -12 32 -9 2 3 2 -4 -1 -16
-3 -13 -1 -21 6 -21 7 0 10 4 7 8 -7 12 68 1 77 -12 4 -7 9 -3 13 12 4 12 12
22 19 22 7 0 15 6 17 13 7 20 103 24 159 6 30 -9 69 -50 69 -72 0 -3 -17 -8
-37 -11 -65 -12 -73 -17 -88 -53 -9 -20 -13 -38 -10 -41 2 -3 8 6 13 18 6 16
11 20 16 11 4 -6 2 -18 -4 -26 -10 -12 -7 -17 15 -25 14 -5 30 -10 34 -10 5 0
11 -9 14 -20 3 -13 -1 -21 -14 -25 -11 -4 -16 -11 -13 -17 4 -6 0 -15 -7 -20
-10 -6 -7 -7 9 -3 13 4 35 4 50 0 26 -6 26 -7 -18 -29 -33 -16 -48 -31 -56
-55 -6 -18 -16 -36 -23 -41 -10 -6 -9 -10 5 -20 18 -11 17 -11 -3 -7 -12 3
-30 -1 -39 -8 -11 -8 -29 -10 -50 -5 -27 6 -37 4 -54 -15 -17 -18 -18 -24 -7
-33 7 -6 28 -10 45 -7 23 2 32 0 32 -11 0 -8 -4 -13 -10 -9 -5 3 -17 -6 -26
-21 -14 -21 -15 -30 -6 -45 7 -11 8 -20 2 -24 -10 -6 -14 -45 -5 -45 3 0 17 7
30 16 21 14 25 14 25 2 0 -8 -9 -19 -21 -24 l-20 -9 20 -26 c21 -27 13 -49
-16 -49 -18 0 -16 -21 4 -35 16 -12 16 -14 0 -29 -9 -10 -17 -21 -17 -26 0 -5
-7 -7 -15 -4 -8 4 -15 1 -15 -5 0 -6 -3 -10 -7 -9 -5 1 -21 -4 -36 -10 -16 -7
-32 -12 -36 -12 -22 0 -93 -44 -101 -63 -14 -33 -46 -67 -63 -67 -9 0 -31 -15
-49 -32 -26 -25 -34 -41 -33 -63 2 -26 6 -29 26 -27 71 10 124 7 127 -9 3 -19
-43 -42 -68 -34 -13 4 -19 -1 -23 -22 -8 -35 -11 -39 -71 -91 -27 -23 -57 -42
-67 -42 -11 0 -19 -4 -19 -9 0 -5 -17 -27 -37 -48 -21 -21 -38 -45 -38 -53 0
-8 -7 -15 -15 -15 -25 0 -70 -36 -70 -57 0 -10 -18 -37 -40 -59 -41 -41 -50
-64 -28 -71 6 -2 9 -9 5 -15 -11 -18 -54 -2 -66 24 -7 15 -15 21 -24 16 -6 -4
-19 -8 -27 -10 -8 -1 -23 -13 -33 -27 -10 -15 -23 -24 -27 -21 -5 3 -12 -5
-16 -17 -8 -28 -38 -58 -58 -58 -8 0 -18 -4 -21 -10 -3 -5 -21 -10 -40 -10
-19 0 -36 -4 -39 -9 -3 -5 -21 -12 -41 -15 -19 -4 -37 -12 -41 -18 -5 -7 -2
-8 7 -3 12 7 12 6 1 -7 -14 -18 -6 -48 13 -48 7 0 15 -9 18 -20 7 -27 -2 -25
-40 10 -38 34 -47 90 -15 90 12 0 13 3 5 8 -7 4 -14 21 -16 38 -2 16 -6 34 -9
40 -14 22 11 38 54 36 59 -2 82 6 68 23 -6 8 -21 15 -33 17 -15 2 -21 9 -19
21 2 9 -2 17 -8 17 -5 0 -10 9 -10 20 0 11 4 20 9 20 5 0 11 8 15 18 3 9 8 22
11 27 7 14 -33 57 -46 50 -5 -4 -9 10 -9 29 0 40 1 40 -35 26 -23 -9 -26 -8
-23 7 2 10 9 17 14 16 5 -1 21 7 34 18 l25 19 -27 0 c-33 0 -32 -2 -13 44 8
20 21 36 29 36 8 0 16 7 20 15 3 9 0 15 -9 15 -19 0 -19 34 0 50 8 6 14 15 13
18 -1 4 2 15 7 25 9 21 8 22 -22 31 -17 6 -23 3 -24 -8 -3 -35 -4 -39 -15 -43
-6 -2 -17 4 -25 13 -11 13 -11 18 -1 21 17 6 15 30 -4 37 -23 9 -46 -13 -39
-35 8 -24 -20 -36 -41 -18 -14 11 -18 10 -30 -6 -8 -10 -14 -28 -14 -39 0 -19
-6 -21 -59 -21 -57 -1 -59 0 -58 25 2 20 -3 25 -23 26 -37 0 -52 12 -41 32 12
22 2 112 -13 113 -6 1 -18 2 -26 3 -20 2 -50 -12 -50 -24 0 -6 5 -10 11 -10
15 0 39 -26 39 -43 0 -10 -7 -13 -20 -10 -11 3 -20 9 -20 13 0 17 -58 31 -125
29 -39 -1 -95 4 -124 12 -58 14 -58 14 -16 103 13 28 25 44 29 37 13 -21 28
-11 24 14 -4 21 -2 24 12 20 23 -7 73 12 65 25 -4 7 -13 6 -27 -1 -21 -12 -32
-5 -56 38 -10 16 -52 5 -52 -13 0 -8 -2 -14 -4 -14 -2 0 -12 -3 -22 -7 -11 -4
-15 -3 -10 5 10 17 -31 53 -70 59 -33 5 -39 12 -35 42 2 7 0 20 -3 28 -5 12
-14 9 -48 -16 -23 -17 -52 -31 -65 -31 -19 0 -23 5 -23 30 0 17 5 30 10 30 19
0 10 18 -11 23 -12 3 -18 10 -14 16 4 7 -5 11 -25 11 -18 0 -33 -6 -36 -15 -3
-8 -14 -17 -25 -20 -11 -4 -19 -15 -18 -28 0 -12 3 -16 6 -9 5 12 23 7 23 -7
0 -12 -68 -13 -90 -1 -33 18 -58 4 -53 -28 4 -27 4 -27 -14 5 -14 25 -21 30
-35 22 -15 -8 -16 -6 -8 21 5 16 6 30 2 30 -4 0 1 5 11 11 24 14 22 38 -3 32
-14 -4 -29 3 -46 22 l-25 27 22 24 c12 13 30 24 40 24 9 0 19 4 21 10 2 5 19
16 40 24 34 14 38 14 61 -4 38 -30 78 -34 106 -12 18 15 22 24 16 38 -10 22
-7 57 6 64 4 3 2 18 -6 33 -13 25 -12 27 6 27 10 0 19 -5 19 -11 0 -13 42 -1
52 14 4 7 -6 17 -25 25 -31 13 -31 14 -13 28 26 19 33 18 41 -5 3 -10 13 -18
23 -17 9 0 17 -3 17 -9 2 -23 27 -54 43 -52 9 1 17 -2 17 -8 0 -5 -3 -9 -7 -7
-11 3 -10 -10 2 -28 7 -12 12 -12 29 4 22 20 29 42 10 30 -6 -3 -4 5 5 18 14
22 15 29 3 58 -12 26 -15 29 -21 14 -5 -12 -10 -14 -17 -7 -8 8 -6 18 5 35 14
21 14 27 1 44 -8 10 -15 27 -15 37 0 11 -8 32 -17 47 -14 24 -14 31 -4 44 8 9
25 16 38 16 22 0 24 -3 19 -25 -6 -22 -3 -25 23 -25 23 0 28 -4 24 -19 -5 -21
29 -35 45 -19 17 17 -8 58 -34 58 -24 0 -34 17 -34 62 0 22 4 29 14 25 19 -7
46 24 52 59 9 55 23 71 60 70 19 0 35 -3 35 -6 1 -3 3 -15 4 -27 1 -12 5 -28
8 -37 4 -10 1 -16 -9 -16 -8 0 -17 -7 -20 -15 -4 -8 -12 -15 -20 -15 -8 0 -14
-7 -14 -16 0 -8 5 -12 10 -9 6 3 10 2 10 -3 0 -6 7 -13 16 -16 8 -3 12 -2 9 4
-3 6 3 10 14 10 12 0 21 -6 21 -12 0 -10 2 -10 9 0 5 8 21 12 40 10 23 -2 39
4 60 25 26 24 33 26 57 16 23 -8 25 -12 14 -19 -13 -8 -12 -10 2 -10 11 0 15
-5 12 -15 -4 -8 -1 -22 6 -30 7 -8 9 -15 5 -15 -4 0 -2 -6 4 -14 6 -7 14 -33
17 -57 5 -44 5 -44 -37 -64 -24 -11 -45 -20 -48 -21 -23 -4 -80 -36 -84 -48
-3 -8 -1 -29 6 -46 10 -25 9 -33 -3 -40 -27 -17 2 -45 49 -48 22 -2 41 -5 41
-6 0 -2 -7 -20 -15 -40 -17 -40 -12 -43 34 -20 18 9 41 14 52 11 19 -5 19 -4
5 18 -14 22 -14 27 1 57 30 61 33 67 29 80 -1 7 -1 10 1 6 6 -9 65 9 74 23 5
9 14 9 37 0 43 -18 76 -11 80 17 2 12 -1 22 -7 22 -6 0 -10 10 -8 22 1 15 -5
26 -20 33 -13 5 -23 13 -23 18 0 13 32 21 39 9 5 -8 17 -9 41 -2 22 6 38 6 45
0 7 -6 20 -8 29 -4 13 5 16 0 14 -22 -1 -16 -5 -33 -8 -39 -12 -17 1 -85 16
-85 8 0 14 9 14 20 0 11 7 20 15 20 18 0 19 -5 3 -29 -6 -10 -8 -26 -4 -36 6
-17 7 -17 25 -1 11 10 30 16 43 15 13 -2 37 6 54 18 28 20 31 28 33 79 1 32 5
63 10 68 4 6 13 30 21 53 11 38 11 46 -7 84 l-20 43 20 16 c16 13 19 23 13 52
-7 41 -29 51 -79 37 -49 -14 -105 -11 -126 8 -20 16 -19 17 6 30 14 7 34 13
44 13 11 0 19 6 19 14 0 17 22 26 61 26 16 0 29 4 29 9 0 5 9 13 21 16 19 6
19 8 5 24 -19 21 -10 34 15 21 9 -6 25 -7 34 -4 10 4 21 1 27 -7 7 -11 11 -11
15 -1 2 7 12 20 21 29 9 9 22 36 28 59 10 40 9 43 -14 56 -13 7 -27 20 -31 30
-4 12 -10 15 -21 8 -12 -7 -12 -12 -2 -22 18 -18 -34 -37 -72 -27 -38 11 -41
15 -23 33 8 9 18 37 22 63 6 45 9 49 56 71 27 13 47 27 44 31 -2 5 6 6 19 4
16 -3 28 2 38 16 10 14 31 23 62 27 75 11 125 -28 76 -58 -34 -21 -22 -31 29
-24 27 4 52 2 55 -2 9 -15 56 -1 67 19 5 11 16 19 24 19 8 0 15 5 15 10 0 6 7
10 15 10 8 0 15 7 15 16 0 8 5 12 10 9 6 -3 10 -2 10 3 0 5 7 9 15 9 8 0 15
-6 15 -14z m-1591 -163 c41 -39 41 -39 21 -58 -11 -10 -18 -26 -15 -34 3 -8
-1 -21 -10 -28 -19 -16 -20 -78 0 -100 14 -16 13 -19 -8 -33 -16 -10 -26 -29
-31 -57 -5 -30 -12 -43 -30 -50 -19 -7 -23 -14 -20 -37 4 -24 3 -25 -5 -8 -5
11 -10 17 -10 13 -1 -5 0 -10 2 -13 2 -5 -49 -35 -60 -35 -2 0 -1 5 2 10 3 6
-1 10 -10 10 -9 0 -14 4 -11 9 8 12 -18 21 -43 14 -12 -3 -21 -1 -21 6 0 6 5
11 12 11 6 0 9 3 5 6 -3 3 3 14 13 24 10 10 21 37 25 61 4 23 13 49 21 56 8 9
11 25 7 43 -3 19 -1 30 6 30 6 0 11 5 11 10 0 6 -9 10 -20 10 -11 0 -20 5 -20
10 0 6 7 10 15 10 8 0 15 4 15 9 0 6 12 16 27 23 21 10 29 23 34 53 4 21 12
41 18 43 6 2 11 12 11 23 0 25 19 17 69 -31z m600 -177 c-4 -24 5 -31 38 -35
24 -3 43 1 51 9 7 7 19 13 25 13 7 0 6 -4 -3 -10 -10 -7 -11 -10 -2 -10 7 0
15 7 18 15 10 24 24 18 35 -15 6 -16 15 -30 20 -30 5 0 4 -8 -2 -19 -7 -10 -9
-26 -4 -37 11 -27 13 -104 3 -110 -4 -3 -2 -17 6 -32 7 -15 11 -33 9 -39 -6
-15 -32 -17 -34 -3 -1 6 -2 14 -3 19 -2 14 -16 26 -16 14 0 -18 -73 -83 -93
-83 -10 0 -30 9 -44 20 -14 11 -40 20 -58 20 -36 0 -44 11 -40 53 4 31 -5 40
-25 27 -10 -6 -11 -12 -2 -22 8 -11 7 -14 -7 -14 -11 0 -17 6 -14 16 2 8 -5
21 -17 28 -12 7 -20 8 -20 2 0 -5 -4 -10 -8 -10 -14 0 -12 54 4 102 14 42 19
48 44 48 40 0 120 47 120 71 0 10 5 19 10 19 6 0 9 -3 9 -7z m-1907 -6107 c-2
-9 4 -16 14 -16 10 0 14 -5 11 -14 -3 -8 2 -21 12 -30 11 -10 17 -29 16 -54
-1 -27 5 -42 21 -54 19 -16 21 -21 11 -43 -7 -13 -25 -30 -42 -36 -48 -17 -59
-25 -70 -45 -6 -12 -18 -18 -29 -16 -13 3 -30 -8 -49 -29 -16 -19 -26 -28 -22
-21 3 6 1 12 -5 12 -6 0 -8 -10 -4 -24 4 -19 -2 -29 -34 -55 -38 -30 -92 -42
-92 -21 0 6 -13 10 -30 10 -16 0 -30 -5 -30 -11 0 -7 -23 -8 -68 -3 -64 6 -69
5 -85 -17 -35 -50 -46 -60 -72 -65 -15 -3 -44 -23 -64 -45 -36 -40 -42 -42
-128 -39 -47 1 -13 31 51 45 21 4 26 9 17 14 -15 10 1 44 33 72 19 16 19 17
-2 67 -23 53 -29 98 -12 87 6 -3 10 5 10 19 0 26 26 60 40 51 4 -3 10 1 13 9
3 8 24 22 46 32 23 10 41 21 41 25 0 4 16 13 36 19 26 9 33 15 23 21 -11 7
-10 11 6 24 28 21 31 22 212 38 18 1 35 -2 37 -8 3 -5 11 -2 19 8 8 9 19 17
26 17 6 0 11 4 11 10 0 5 12 13 27 16 23 6 25 8 9 14 -16 5 -14 9 15 20 19 8
40 20 48 28 17 17 37 10 33 -12z m7859 -639 c19 -12 32 -27 29 -32 -3 -6 -8
-9 -12 -7 -5 1 -8 -9 -8 -22 0 -13 -7 -29 -15 -36 -22 -18 -18 -30 8 -30 33 0
47 -18 37 -46 -7 -18 -6 -22 5 -17 29 10 14 -15 -15 -27 -25 -10 -35 -9 -72 8
-24 11 -49 22 -57 24 -8 2 -16 15 -18 28 -2 14 -10 28 -17 32 -17 10 -9 51 15
77 10 11 19 32 19 46 0 22 4 25 34 25 18 0 48 -10 67 -23z m-158 -176 c10 -4
18 -11 17 -16 0 -6 9 -11 20 -13 27 -4 35 -24 20 -51 -12 -23 -56 -29 -63 -8
-3 9 -10 9 -33 -3 -16 -8 -33 -21 -37 -28 -5 -7 -13 -9 -19 -6 -6 4 -18 8 -27
9 -63 8 -81 18 -81 45 0 37 24 58 39 33 7 -12 10 -13 11 -4 0 7 6 11 13 8 7
-3 21 1 32 9 10 8 15 14 9 15 -5 0 0 4 11 9 24 10 64 11 88 1z m-497 -86 c4
-8 10 -13 15 -10 4 3 25 -4 46 -15 32 -17 38 -18 41 -5 2 8 14 15 28 15 14 0
22 -4 19 -10 -3 -6 6 -15 21 -20 15 -6 42 -27 61 -46 26 -28 32 -41 27 -60 -5
-19 -3 -25 7 -23 8 2 23 0 34 -4 18 -6 20 -15 18 -58 -2 -65 -13 -77 -13 -15
0 48 -15 76 -38 68 -18 -6 -15 -20 6 -24 14 -2 16 -11 12 -46 l-5 -43 -32 29
c-41 36 -43 54 -5 47 l27 -5 -26 10 c-14 6 -32 22 -39 35 -15 28 -42 41 -92
44 -16 1 -19 4 -10 9 19 13 -23 52 -57 52 -38 0 -81 35 -81 66 0 27 27 34 36
9z m-9581 -155 c-16 -18 -16 -20 -2 -20 9 0 20 -7 25 -17 6 -10 16 -14 26 -10
10 4 15 11 12 16 -3 5 13 11 36 15 30 5 45 3 58 -9 9 -8 22 -15 29 -15 9 0 11
-6 5 -17 -4 -10 -9 -35 -12 -55 -4 -35 -7 -38 -35 -38 -17 0 -28 3 -24 6 3 3
-4 15 -15 26 -19 19 -19 20 -1 33 14 12 15 15 3 16 -8 1 -19 0 -25 -1 -5 -1
-34 1 -63 5 -59 7 -74 25 -48 54 9 10 13 21 9 24 -3 4 4 7 17 7 22 0 23 -1 5
-20z m1886 -59 c12 -22 30 -42 40 -44 22 -6 36 -36 22 -46 -18 -11 -20 -36 -4
-49 13 -10 9 -11 -24 -6 -48 8 -66 21 -45 34 8 5 18 6 22 4 4 -3 8 2 8 10 0
20 -14 20 -29 2 -7 -8 -20 -14 -29 -14 -9 0 -25 -3 -34 -7 -26 -10 -23 21 2
35 11 6 20 20 20 32 0 20 -1 20 -18 5 -21 -19 -42 -6 -42 26 0 13 5 17 18 13
13 -5 22 1 30 19 16 36 37 31 63 -14z m2949 -1722 c8 -2 21 -15 27 -29 13 -25
13 -25 10 8 -3 30 -2 32 30 32 19 0 32 -4 29 -9 -3 -4 24 -7 59 -5 l65 4 0
-30 c0 -22 6 -33 22 -39 18 -6 19 -9 5 -14 -20 -7 -23 -33 -4 -40 6 -3 -14 -3
-45 0 -52 5 -58 4 -58 -13 0 -35 -30 -43 -116 -33 -43 5 -113 9 -154 8 -123
-2 -122 -2 -116 24 3 12 3 16 0 10 -3 -7 -13 -13 -22 -12 -11 0 -12 2 -4 6 6
2 12 11 12 19 0 8 7 14 15 14 8 0 24 13 36 30 17 23 26 27 36 19 10 -9 13 -8
13 5 0 11 9 16 28 16 15 0 41 9 57 20 17 10 37 18 45 16 8 -2 22 -5 30 -7z"/>
<path d="M5812 8831 c-85 -25 -84 -24 -168 -106 l-51 -50 -1 -78 c-1 -96 14
-134 80 -207 83 -92 113 -110 179 -110 31 0 92 9 135 20 44 11 89 20 101 20
24 0 91 59 111 96 6 11 10 45 10 75 -1 29 -3 48 -6 41 -6 -20 -22 -3 -22 24 0
25 15 33 23 12 4 -9 6 -8 6 2 1 16 -44 105 -63 126 -6 7 -26 35 -45 61 -56 80
-168 109 -289 74z"/>
</g>
</svg>
